{"accessors":[{"bufferView":0,"byteOffset":0,"componentType":5126,"count":1482,"max":[12.5,12.9249992370605,63.6152496337891],"min":[-39.6863479614258,-38.5999984741211,-306.166259765625],"normalized":false,"type":"VEC3"},{"bufferView":1,"byteOffset":0,"componentType":5126,"count":1482,"max":[1.0,1.0,0.0000763009302318096,1.0],"min":[-1.0,-1.0,-1.0,-1.0],"normalized":false,"type":"VEC4"},{"bufferView":2,"byteOffset":0,"componentType":5126,"count":1482,"max":[1.0,1.0,1.0],"min":[-1.0,-1.0,-1.0],"normalized":false,"type":"VEC3"},{"bufferView":3,"byteOffset":0,"componentType":5126,"count":1482,"max":[1.0,1.0],"min":[0.0,0.0],"normalized":false,"type":"VEC2"},{"bufferView":4,"byteOffset":0,"componentType":5123,"count":1482,"max":[1481.0],"min":[0.0],"normalized":false,"type":"SCALAR"},{"bufferView":5,"byteOffset":0,"componentType":5126,"count":78,"max":[3.07672023773193,-3.22774028778076,-5.73099899291992],"min":[-8.81118011474609,-12.387900352478,-26.5761985778809],"normalized":false,"type":"VEC3"},{"bufferView":6,"byteOffset":0,"componentType":5126,"count":78,"max":[1.0,0.000152650769450702,1.0,1.0],"min":[-0.0000305185094475746,-0.0796497091650963,-1.0,-1.0],"normalized":false,"type":"VEC4"},{"bufferView":7,"byteOffset":0,"componentType":5126,"count":78,"max":[1.0,1.0,1.0],"min":[-1.0,-1.0,-1.0],"normalized":false,"type":"VEC3"},{"bufferView":8,"byteOffset":0,"componentType":5126,"count":78,"max":[1.0,1.0],"min":[0.0,0.0],"normalized":false,"type":"VEC2"},{"bufferView":9,"byteOffset":0,"componentType":5123,"count":78,"max":[77.0],"min":[0.0],"normalized":false,"type":"SCALAR"}],"asset":{"generator":"Godot Engine v4.4.1.stable.steam@49a5bc7b616bd04689a2c89e89bda41f50241464","version":"2.0"},"bufferViews":[{"buffer":0,"byteLength":17784,"byteOffset":0,"byteStride":12,"target":34962},{"buffer":0,"byteLength":23712,"byteOffset":17784,"byteStride":16,"target":34962},{"buffer":0,"byteLength":17784,"byteOffset":41496,"byteStride":12,"target":34962},{"buffer":0,"byteLength":11856,"byteOffset":59280,"byteStride":8,"target":34962},{"buffer":0,"byteLength":2964,"byteOffset":71136,"target":34963},{"buffer":0,"byteLength":936,"byteOffset":74100,"byteStride":12,"target":34962},{"buffer":0,"byteLength":1248,"byteOffset":75036,"byteStride":16,"target":34962},{"buffer":0,"byteLength":936,"byteOffset":76284,"byteStride":12,"target":34962},{"buffer":0,"byteLength":624,"byteOffset":77220,"byteStride":8,"target":34962},{"buffer":0,"byteLength":156,"byteOffset":77844,"target":34963}],"buffers":[{"byteLength":78000,"uri":"tutorial_level0.bin"}],"extensionsUsed":["GODOT_single_root"],"images":[{"uri":"textures%2F_albedo000.png"}],"materials":[{"extensions":{},"pbrMetallicRoughness":{"baseColorFactor":[1.0,1.0,1.0,1.0],"baseColorTexture":{"index":0},"metallicFactor":0.5,"roughnessFactor":0.699999988079071}},{}],"meshes":[{"extras":{"targetNames":[]},"primitives":[{"attributes":{"NORMAL":2,"POSITION":0,"TANGENT":1,"TEXCOORD_0":3},"indices":4,"material":0,"mode":4},{"attributes":{"NORMAL":7,"POSITION":5,"TANGENT":6,"TEXCOORD_0":8},"indices":9,"material":1,"mode":4}]}],"nodes":[{"children":[1],"mesh":0,"name":"CSGCombiner3D2"},{"children":[2,3,4,5,6,7,8,9,10,11,12,13,14,15,16,17,18,19,20,21,22,23,24,25,26,27,28,29,30],"name":"Nave","translation":[0.0,0.0,-45.5998992919922]},{"name":"ExteriorSalaGrande","translation":[0.0,0.0,6.75]},{"name":"InteriorSalaGrande","translation":[0.0,-1.0,6.55000019073486]},{"name":"ExteriorCorredor","translation":[0.0,0.0,41.8717002868652]},{"name":"InteriorCorredor","translation":[0.0,-1.0,40.2188987731934]},{"name":"ExteriorCorredor4","rotation":[0.0,-0.70710676908493,0.0,0.70710676908493],"translation":[-20.9144992828369,0.0,55.497200012207]},{"name":"InteriorCorredor4","rotation":[0.0,-0.70710676908493,0.0,0.70710676908493],"translation":[-19.3209991455078,-1.0,55.497200012207]},{"name":"ExteriorCorredor5","translation":[-34.6609001159668,0.0,79.0490036010742]},{"name":"InteriorCorredor5","translation":[-34.6609001159668,-1.0,78.5908966064453]},{"name":"ExteriorCorredor6","translation":[-34.6609001159668,0.0,103.246002197266]},{"name":"InteriorCorredor6","translation":[-34.6609001159668,-1.0,102.204002380371]},{"name":"ExteriorElevador","rotation":[0.70710676908493,0.0,0.0,0.70710676908493],"translation":[0.0,2.97499990463257,-70.5273971557617]},{"name":"InteriorElevador","rotation":[0.70710676908493,0.0,0.0,0.70710676908493],"translation":[0.0,3.27500009536743,-70.3774032592773]},{"name":"ExteriorCorredor2","translation":[0.0,0.0,-37.1902008056641]},{"name":"InteriorCorredor2","translation":[0.0,-1.0,-39.1901016235352]},{"name":"ExteriorCorredor3","translation":[0.0,1.70000004768372,-107.65299987793]},{"name":"InteriorCorredor3","translation":[0.0,1.29999995231628,-108.128997802734]},{"name":"ExteriorCorredor7","translation":[0.0,1.70000004768372,-168.65299987793]},{"name":"InteriorCorredor7","translation":[0.0,1.29999995231628,-169.128997802734]},{"name":"ExteriorCorredor8","translation":[0.0,1.70000004768372,-229.65299987793]},{"name":"InteriorCorredor8","translation":[0.0,1.29999995231628,-227.899993896484]},{"name":"ExteriorObstaculo","translation":[0.0,0.699999988079071,-50.1902008056641]},{"name":"ExteriorBuraco","translation":[0.0,-7.26851987838745,32.573299407959]},{"name":"InteriorBuraco","translation":[0.0,-5.7109899520874,30.8775997161865]},{"name":"Rampa","rotation":[0.0,-0.70710676908493,0.0,0.70710676908493],"translation":[-3.25251007080078,-9.22774028778076,33.8689002990723]},{"name":"ExteriorBuraco3","translation":[0.0,-20.3999996185303,-110.193000793457]},{"name":"InteriorBuraco3","translation":[0.0,-16.75,-110.292999267578]},{"name":"ExteriorBuraco2","translation":[0.0,-8.83850955963135,13.6822996139526]},{"name":"InteriorBuraco2","translation":[0.0,-7.29691982269287,12.023699760437]},{"name":"Rampa2","translation":[-5.81118011474609,-12.387900352478,21.9995002746582]}],"samplers":[{"magFilter":9729,"minFilter":9987,"wrapS":10497,"wrapT":10497}],"scene":0,"scenes":[{"nodes":[0]}],"textures":[{"sampler":0,"source":0}]}